<svg width="24" height="24" viewBox="0 0 24 24" fill="none" xmlns="http://www.w3.org/2000/svg">
<path d="M15.9506 8.59331C14.1065 8.68963 12.5029 9.24869 11.201 10.5117C9.88568 11.7876 9.28523 13.3512 9.44936 15.2895C8.72859 15.2002 8.07208 15.102 7.41182 15.0464C7.1838 15.0272 6.91319 15.0545 6.72006 15.1635C6.07895 15.5252 5.46431 15.9337 4.73584 16.389C4.86952 15.7845 4.95604 15.2551 5.10919 14.7459C5.22185 14.3716 5.16966 14.1633 4.8249 13.9196C2.61122 12.3567 1.67812 10.0177 2.37642 7.60967C3.02248 5.38199 4.60906 4.03097 6.76487 3.3267C9.70735 2.36557 13.0141 3.34598 14.8034 5.68213C15.4496 6.526 15.8459 7.47313 15.9506 8.59331ZM7.46349 7.84297C7.48047 7.40254 7.09885 7.00576 6.64552 6.99249C6.18141 6.97885 5.79967 7.33353 5.78611 7.79086C5.7724 8.25436 6.12691 8.62582 6.59441 8.63768C7.05787 8.64946 7.44635 8.2943 7.46349 7.84297ZM11.8916 6.99221C11.4366 7.0006 11.0521 7.3881 11.0602 7.83027C11.0685 8.28861 11.4456 8.64716 11.9135 8.64155C12.3826 8.6359 12.7383 8.27352 12.7339 7.80554C12.73 7.34612 12.3545 6.98373 11.8916 6.99221Z" fill="#97A0AB"/>
<path d="M20.0936 20.0898C19.5097 19.8298 18.974 19.4397 18.4037 19.3801C17.8357 19.3208 17.2385 19.6485 16.6441 19.7093C14.8337 19.8945 13.2118 19.3899 11.8744 18.1531C9.33086 15.8005 9.69433 12.1933 12.6371 10.2653C15.2525 8.55186 19.0882 9.1231 20.9322 11.5006C22.5414 13.5752 22.3523 16.3292 20.3878 18.072C19.8193 18.5764 19.6147 18.9915 19.9795 19.6565C20.0468 19.7793 20.0545 19.9347 20.0936 20.0898ZM13.4468 13.6543C13.8185 13.6546 14.1246 13.3637 14.1387 12.9965C14.1535 12.6078 13.8409 12.2818 13.4516 12.2802C13.0663 12.2784 12.7434 12.609 12.7568 12.992C12.7694 13.3579 13.0777 13.6538 13.4468 13.6543ZM17.7316 12.2817C17.3709 12.2792 17.0645 12.5745 17.0497 12.9389C17.0341 13.3286 17.337 13.6487 17.7227 13.6496C18.0957 13.6508 18.3905 13.3687 18.404 12.9975C18.4185 12.6069 18.1155 12.2844 17.7316 12.2817Z" fill="#97A0AB"/>
</svg>
