<?xml version="1.0" encoding="UTF-8" standalone="no"?>
<svg
   xmlns:dc="http://purl.org/dc/elements/1.1/"
   xmlns:cc="http://creativecommons.org/ns#"
   xmlns:rdf="http://www.w3.org/1999/02/22-rdf-syntax-ns#"
   xmlns:svg="http://www.w3.org/2000/svg"
   xmlns="http://www.w3.org/2000/svg"
   viewBox="0 0 1706.6667 700"
   height="700"
   width="1706.6667"
   xml:space="preserve"
   id="svg2"
   version="1.1"><metadata
     id="metadata8"><rdf:RDF><cc:Work
         rdf:about=""><dc:format>image/svg+xml</dc:format><dc:type
           rdf:resource="http://purl.org/dc/dcmitype/StillImage" /></cc:Work></rdf:RDF></metadata><defs
     id="defs6"><clipPath
       id="clipPath18"
       clipPathUnits="userSpaceOnUse"><path
         id="path16"
         d="M 0,1024 H 1280 V 0 H 0 Z" /></clipPath></defs><g
     transform="matrix(1.3333333,0,0,-1.3333333,0,1365.3333)"
     id="g10"><g
       id="g12"><g
         clip-path="url(#clipPath18)"
         id="g14"><g
           transform="translate(907.5801,794.5762)"
           id="g20"><path
             id="path22"
             style="fill:#777777;fill-opacity:1;fill-rule:nonzero;stroke:none"
             d="m 0,0 -2.1,9.36 h -16.421 l 0.021,0.21 h -0.01 c 0.07,0.9 0.15,1.79 0.22,2.67 0.6,7.22 1.15,14.05 1.76,21.52 -10.65,-3.37 -20.25,-6.4 -29.67,-9.38 -0.76,-5.22 -1.44,-9.88 -2.18,-15.02 h -16.78 l 0.03,-0.11 0.72,-3.3 4.9,-22.59 h 5.79 2.83 L -50.93,-17 h 0.01 c -0.03,-0.24 -0.05,-0.48 -0.08,-0.72 -1.91,-18.17 -3.78,-35.86 -5.68,-53.93 h 29.18 c 1.96,17.76 3.88,35.16 5.84,53.01 l 0.02,0.17 c 0.06,0.51 0.11,1.03 0.17,1.54 h 0.02 l 0.03,0.29 h 2.41 22.76 z" /></g><g
           transform="translate(723.8604,837.5161)"
           id="g24"><path
             id="path26"
             style="fill:#777777;fill-opacity:1;fill-rule:nonzero;stroke:none"
             d="m 0,0 c -0.891,-6.77 -1.801,-12.68 -2.42,-18.61 -1.051,-10.19 -1.96,-20.4 -2.98,-30.6 h 0.009 l -1.089,-12.77 -5.85,9.02 -0.231,0.35 C -23.99,-35.05 -35.44,-17.49 -46.92,0.15 -51.36,0.15 -55.511,0.18 -59.66,0.14 -63.9,0.1 -68.15,0 -72.49,-0.08 c -4.16,-38.58 -8.24,-76.41 -12.37,-114.7 h 29.099 l 6.12,56.41 0.781,7.17 13.82,-21.94 c 9.109,-13.91 18.22,-27.81 27.33,-41.72 H 16.37 C 20.739,-76.56 24.88,-38.5 28.81,0.21 18.6,0.01 9.229,0.39 0,0" /></g><g
           transform="translate(277.8096,747.5703)"
           id="g28"><path
             id="path30"
             style="fill:#777777;fill-opacity:1;fill-rule:nonzero;stroke:none"
             d="M 0,0 C -13.03,2.396 -21.288,11.98 -21.741,25.86 -22.36,44.837 -5.775,61.964 13.195,62.221 28.616,62.429 41.243,50.592 40.578,35.021 41.396,14.867 20.67,-3.8 0,0 M 19.969,90.134 C 0.323,90.843 -16.682,83.962 -30.82,70.521 -44.265,57.738 -52.183,42.196 -52.193,21.546 c -0.648,-24.233 18.012,-45.968 45.135,-49.464 28.953,-3.731 57.27,11.649 70.591,36.563 7.358,13.76 10.458,28.505 6.122,43.894 C 62.921,76.44 43.232,89.294 19.969,90.134" /></g><g
           transform="translate(410.8945,803.4653)"
           id="g32"><path
             id="path34"
             style="fill:#777777;fill-opacity:1;fill-rule:nonzero;stroke:none"
             d="m 0,0 c -14.321,0.288 -28.651,0.168 -42.977,0.192 -1.608,0.002 -3.217,-0.215 -5.288,-0.363 -3.988,-36.456 -8.055,-72.514 -11.756,-108.98 h 28.933 c 3.027,27.692 6.021,55.079 9.066,82.938 6.266,0.517 12.073,0.995 17.739,-0.442 4.088,-1.037 6.819,-3.965 7.983,-8.187 2.336,-8.471 -3.476,-17.48 -12.364,-18.979 -2.589,-0.437 -5.222,-0.616 -8.625,-1.003 1.752,-8.552 3.432,-16.748 5.2,-25.375 3.059,0.354 5.707,0.431 8.246,0.998 8.174,1.822 15.962,4.388 22.253,10.447 9.396,9.049 12.479,20.545 13.247,32.941 0.427,6.907 -0.64,13.695 -4.112,19.791 C 21.501,-5.411 12.016,-0.242 0,0" /></g><g
           transform="translate(601.4897,803.7778)"
           id="g36"><path
             id="path38"
             style="fill:#777777;fill-opacity:1;fill-rule:nonzero;stroke:none"
             d="m 0,0 c -6.962,0.44 -13.997,0.444 -20.96,0.013 -17.615,-1.092 -33.686,-15.893 -36.05,-33.392 -1.915,-14.175 -3.225,-28.431 -4.756,-42.656 -0.169,-1.57 -0.023,-3.174 -0.023,-4.743 h 28.349 c 0.359,2.397 0.714,4.353 0.938,6.324 1.386,12.234 2.812,24.465 4.077,36.711 0.511,4.948 3.028,8.445 7.258,10.623 3.98,2.051 8.356,2.251 12.663,1.183 5.808,-1.44 8.881,-5.706 8.566,-11.81 -0.36,-6.979 -0.88,-13.949 -1.364,-20.92 -0.495,-7.118 -1.03,-14.232 -1.602,-22.115 h 28.576 c 0.25,1.207 0.505,1.993 0.564,2.794 0.75,10.121 1.498,20.243 2.189,30.369 0.385,5.639 1.036,11.293 0.915,16.927 C 29.002,-14.94 15.697,-0.992 0,0" /></g><g
           transform="translate(801.9355,780.6304)"
           id="g40"><path
             id="path42"
             style="fill:#777777;fill-opacity:1;fill-rule:nonzero;stroke:none"
             d="M 0,0 C 5.731,-1.28 7.9,-4.16 7.205,-9.566 7.199,-9.475 7.194,-9.412 7.194,-9.412 H -15.984 C -13.874,-2.406 -6.962,1.555 0,0 M 12.446,18.684 C 5.684,21.063 -1.265,21.061 -8.27,20.283 -19.515,19.036 -28.914,14.244 -36.221,5.55 -43.406,-3 -46.367,-13.093 -46.432,-24.061 c -0.089,-15.096 6.403,-26.605 20.33,-32.695 15.029,-6.572 30.277,-5.182 45.05,1.471 3.872,1.743 7.243,4.409 10.299,8.276 -7.311,5.049 -14.099,9.737 -20.704,14.3 -13.804,-7.269 -25.072,-5.269 -26.869,5.268 17.006,0.311 33.908,-0.032 51.305,0.215 2.583,7.793 2.285,15.186 0.567,22.564 -2.71,11.641 -9.839,19.384 -21.1,23.346" /></g><g
           transform="translate(505.2988,770.6069)"
           id="g44"><path
             id="path46"
             style="fill:#777777;fill-opacity:1;fill-rule:nonzero;stroke:none"
             d="m 0,0 h -22.986 c 1.998,7.528 9.688,11.832 16.649,10.063 C -1.166,8.749 1.042,5.367 0,0 m 11.896,25.872 c -6.776,3.855 -14.012,4.86 -21.605,4.83 -10.366,-0.041 -19.726,-3.015 -27.708,-9.626 -12.12,-10.036 -16.604,-23.327 -15.621,-38.685 0.935,-14.621 8.522,-24.649 22.026,-29.85 14.236,-5.484 28.482,-4.176 42.305,1.74 4.058,1.737 7.92,4.161 11.001,8.818 -7.2,4.998 -13.977,9.703 -20.576,14.284 -13.436,-7.637 -24.802,-5.646 -26.824,5.203 h 51.383 c 0.537,2.356 1.168,3.936 1.211,5.531 0.127,4.656 0.641,9.423 -0.123,13.956 -1.691,10.025 -6.13,18.486 -15.469,23.799" /></g></g></g></g></svg>