<svg width="25" height="25" viewBox="0 0 25 25" fill="none" xmlns="http://www.w3.org/2000/svg">
<circle cx="12" cy="12.126" r="12" fill="white"/>
<circle cx="12" cy="12.126" r="12" fill="#2D8DFC"/>
<path d="M10.59 15.706L7.12461 12.2406C6.73506 11.8511 6.10343 11.8503 5.71251 12.2385V12.2385C5.31963 12.6286 5.31811 13.2641 5.70961 13.6556L10.59 18.536L19.5174 9.51011C19.9031 9.12021 19.9013 8.49203 19.5135 8.10425V8.10425C19.1227 7.71336 18.4883 7.7152 18.0997 8.10836L10.59 15.706Z" fill="#C2D1D9"/>
<mask id="mask0" mask-type="alpha" maskUnits="userSpaceOnUse" x="5" y="7" width="15" height="12">
<path d="M10.59 15.706L7.12461 12.2406C6.73506 11.8511 6.10343 11.8503 5.71251 12.2385V12.2385C5.31963 12.6286 5.31811 13.2641 5.70961 13.6556L10.59 18.536L19.5174 9.51011C19.9031 9.12021 19.9013 8.49203 19.5135 8.10425V8.10425C19.1227 7.71336 18.4883 7.7152 18.0997 8.10836L10.59 15.706Z" fill="white"/>
</mask>
<g mask="url(#mask0)">
<rect x="1" y="0.125977" width="24" height="24" fill="white"/>
</g>
</svg>
