<svg width="25" height="24" viewBox="0 0 25 24" fill="none" xmlns="http://www.w3.org/2000/svg">
<path fill-rule="evenodd" clip-rule="evenodd" d="M17.3427 10.12C17.7327 9.73068 17.7327 9.09865 17.3427 8.70928C16.9539 8.32121 16.3244 8.32086 15.9352 8.70852L12.0493 12.579L8.16343 8.70852C7.77423 8.32086 7.14475 8.32121 6.75597 8.70928C6.3659 9.09865 6.3659 9.73068 6.75597 10.12L12.0493 15.4039L17.3427 10.12Z" fill="black" fill-opacity="0.7"/>
<mask id="mask0" mask-type="alpha" maskUnits="userSpaceOnUse" x="6" y="8" width="12" height="8">
<path fill-rule="evenodd" clip-rule="evenodd" d="M17.3427 10.12C17.7327 9.73068 17.7327 9.09865 17.3427 8.70928C16.9539 8.32121 16.3244 8.32086 15.9352 8.70852L12.0493 12.579L8.16343 8.70852C7.77423 8.32086 7.14475 8.32121 6.75597 8.70928C6.3659 9.09865 6.3659 9.73068 6.75597 10.12L12.0493 15.4039L17.3427 10.12Z" fill="white"/>
</mask>
<g mask="url(#mask0)">
<rect x="24.0493" y="0.0216064" width="23.9568" height="24" transform="rotate(90 24.0493 0.0216064)" fill="#2D8DFC"/>
</g>
</svg>