<svg width="25" height="24" viewBox="0 0 25 24" fill="none" xmlns="http://www.w3.org/2000/svg">
<path fill-rule="evenodd" clip-rule="evenodd" d="M10.1695 6.70665C9.78012 6.31659 9.14809 6.31659 8.75872 6.70665C8.37065 7.09543 8.3703 7.72491 8.75795 8.11411L12.6284 12L8.75795 15.8859C8.3703 16.2751 8.37065 16.9046 8.75872 17.2933C9.14809 17.6834 9.78012 17.6834 10.1695 17.2933L15.4533 12L10.1695 6.70665Z" fill="black" fill-opacity="0.7"/>
<mask id="mask0" mask-type="alpha" maskUnits="userSpaceOnUse" x="8" y="6" width="8" height="12">
<path fill-rule="evenodd" clip-rule="evenodd" d="M10.1695 6.70665C9.78012 6.31659 9.14809 6.31659 8.75872 6.70665C8.37065 7.09543 8.3703 7.72491 8.75795 8.11411L12.6284 12L8.75795 15.8859C8.3703 16.2751 8.37065 16.9046 8.75872 17.2933C9.14809 17.6834 9.78012 17.6834 10.1695 17.2933L15.4533 12L10.1695 6.70665Z" fill="white"/>
</mask>
<g mask="url(#mask0)">
<rect x="0.0710449" width="23.9568" height="24" fill="#2D8DFC"/>
</g>
</svg>