<svg width="71" height="41" viewBox="0 0 71 41" fill="none" xmlns="http://www.w3.org/2000/svg">
<path d="M53.2715 40.2544H18.2861L18.2803 38.1705C18.2803 33.9592 18.5719 31.5274 22.9119 30.3767C27.8236 29.0755 32.6653 27.9149 30.3349 22.9877C23.434 8.39374 28.369 0.11499 35.7774 0.11499C43.0428 0.11499 48.1032 8.086 41.2199 22.9911C38.9594 27.8881 43.629 29.0521 48.6428 30.3801C52.9886 31.5307 53.2774 33.9659 53.2774 38.1838L53.2715 40.2544ZM67.3036 32.8487C63.5411 31.8519 60.0411 30.9788 61.7357 27.3061C66.8953 16.1273 63.1036 10.1498 57.6524 10.1498C53.9628 10.1498 51.0957 12.8827 51.0957 17.9235C51.0957 30.9788 57.7107 23.844 57.6465 40.2544H70.7744L70.7803 38.7057C70.7803 35.5413 70.5644 33.7116 67.3036 32.8487ZM0.786107 40.2544H13.914C13.8528 23.844 20.4649 30.9822 20.4649 17.9235C20.4649 12.8827 17.5978 10.1498 13.9082 10.1498C8.45694 10.1498 4.66527 16.1273 9.82777 27.3061C11.5224 30.9822 8.02236 31.8519 4.25986 32.8487C0.996107 33.7116 0.780273 35.5413 0.780273 38.7057L0.786107 40.2544Z" fill="#11355F"/>
<path d="M16.0067 40.1394H55.99L55.9967 38.0689C55.9967 33.8509 55.6667 31.4158 50.7 30.2651C44.97 28.9371 39.6333 27.7731 42.2167 22.8761C50.0833 7.97101 44.3 0 35.9967 0C27.53 0 21.89 8.27875 29.7767 22.8728C32.44 27.7999 26.9067 28.9606 21.2933 30.2617C16.3333 31.4124 16 33.8442 16 38.0555L16.0067 40.1394Z" fill="#2D8DFC"/>
</svg>
