<svg width="120" height="121" viewBox="0 0 120 121" fill="none" xmlns="http://www.w3.org/2000/svg">
<g opacity="0.4">
<circle cx="60" cy="60.75" r="60" fill="#F0CA10"/>
<path d="M42.5 82H30V52H42.5V82ZM86.5375 60.97C84.395 60.6825 85.0925 59.135 86.615 58.665C87.9175 58.265 90 57.415 90 54.89C90 53.21 88.75 50.985 84.3225 51.165C81.2525 51.29 75.1575 50.67 71.875 48.9525C74.14 39.8125 73.595 27 67.655 27C63.67 27 62.915 31.5175 61.7175 35.6725C58.665 46.2775 53.4375 50.715 47.5 52.885V80.08C58.455 81.8325 63.3625 87 73.7625 87C81.7575 87 85.8925 82.6625 85.8925 80.335C85.8925 79.4975 85.2125 78.9025 83.4925 78.77C81.465 78.615 81.6575 76.74 83.57 76.3875C86.74 75.8025 88.135 74.1025 88.135 72.53C88.135 71.2075 87.145 69.975 85.39 69.5775C83.2975 69.105 83.73 67.685 85.4675 67.5475C88.3 67.3225 89.6875 65.6375 89.6875 64.0225C89.6875 62.61 88.6275 61.25 86.5375 60.97V60.97Z" fill="#FDF8DB"/>
</g>
</svg>
