<svg width="104" height="80" viewBox="0 0 104 80" fill="none" xmlns="http://www.w3.org/2000/svg">
<path d="M47.932 8V37.564C47.932 60.38 33.008 75.844 12 80L8.02 71.396C17.748 67.728 24 56.844 24 48H8V8H47.932ZM104 8V37.564C104 60.38 89.008 75.848 68 80L64.016 71.396C73.748 67.728 80 56.844 80 48H64.068V8H104Z" fill="#FAFAFA" fill-opacity="0.6"/>
<path d="M39.932 0V29.564C39.932 52.38 25.008 67.844 4 72L0.02 63.396C9.748 59.728 16 48.844 16 40H0V0H39.932ZM96 0V29.564C96 52.38 81.008 67.848 60 72L56.016 63.396C65.748 59.728 72 48.844 72 40H56.068V0H96Z" fill="white"/>
</svg>
