<svg width="45" height="49" viewBox="0 0 45 49" fill="none" xmlns="http://www.w3.org/2000/svg">
<path d="M12.7803 48.2544H0.780273V36.2126H12.7803V48.2544ZM28.7803 30.1917H16.7803V48.2544H28.7803V30.1917ZM44.7803 22.1638H32.7803V48.2544H44.7803V22.1638ZM44.7803 0.0871582L32.7803 2.53767L36.2123 5.96557L22.5123 19.4785L16.5103 13.4536L0.828274 29.1019L3.64827 31.9478L16.5023 19.1233L22.4843 25.1301L39.0443 8.79941L42.3783 12.131L44.7803 0.0871582Z" fill="#11355F"/>
<path d="M32.7804 2.53767L44.7804 0.0871582L42.3784 12.131L39.0444 8.79941L22.4844 25.1301L16.5024 19.1233L3.64837 31.9478L0.828369 29.1019L16.5104 13.4536L22.5124 19.4785L36.2124 5.96557L32.7804 2.53767Z" fill="#2D8DFC"/>
</svg>
