<svg width="160" height="21" viewBox="0 0 160 21" fill="none" xmlns="http://www.w3.org/2000/svg">
<path d="M11.382 17.0001C11.228 16.4961 11.053 15.9781 10.857 15.4461C10.675 14.9141 10.493 14.3821 10.311 13.8501H4.64097C4.45897 14.3821 4.26997 14.9141 4.07397 15.4461C3.89197 15.9781 3.72397 16.4961 3.56997 17.0001H0.167969C0.713969 15.4321 1.23197 13.9831 1.72197 12.6531C2.21197 11.3231 2.68797 10.0701 3.14997 8.8941C3.62597 7.7181 4.08797 6.6051 4.53597 5.5551C4.99797 4.4911 5.47397 3.4551 5.96397 2.4471H9.09297C9.56897 3.4551 10.038 4.4911 10.5 5.5551C10.962 6.6051 11.424 7.7181 11.886 8.8941C12.362 10.0701 12.845 11.3231 13.335 12.6531C13.825 13.9831 14.343 15.4321 14.889 17.0001H11.382ZM7.45497 5.7441C7.38497 5.9541 7.27997 6.2411 7.13997 6.6051C6.99997 6.9691 6.83897 7.3891 6.65697 7.8651C6.47497 8.3411 6.27197 8.8661 6.04797 9.4401C5.83797 10.0141 5.62097 10.6161 5.39697 11.2461H9.53397C9.30997 10.6161 9.09297 10.0141 8.88297 9.4401C8.67297 8.8661 8.46997 8.3411 8.27397 7.8651C8.09197 7.3891 7.93097 6.9691 7.79097 6.6051C7.65097 6.2411 7.53897 5.9541 7.45497 5.7441Z" fill="#333333" fill-opacity="0.87"/>
<path d="M23.6397 11.5611C23.6397 10.5951 23.4227 9.8251 22.9887 9.2511C22.5547 8.6631 21.9107 8.3691 21.0567 8.3691C20.7767 8.3691 20.5177 8.3831 20.2797 8.4111C20.0417 8.4251 19.8457 8.4461 19.6917 8.4741V14.1231C19.8877 14.2491 20.1397 14.3541 20.4477 14.4381C20.7697 14.5221 21.0917 14.5641 21.4137 14.5641C22.8977 14.5641 23.6397 13.5631 23.6397 11.5611ZM26.8317 11.4771C26.8317 12.3311 26.7267 13.1081 26.5167 13.8081C26.3067 14.5081 25.9987 15.1101 25.5927 15.6141C25.1867 16.1181 24.6827 16.5101 24.0807 16.7901C23.4787 17.0701 22.7857 17.2101 22.0017 17.2101C21.5677 17.2101 21.1617 17.1681 20.7837 17.0841C20.4057 17.0001 20.0417 16.8811 19.6917 16.7271V20.8851H16.5627V6.3321C16.8427 6.2481 17.1647 6.1711 17.5287 6.1011C17.8927 6.0171 18.2707 5.9471 18.6627 5.8911C19.0687 5.8351 19.4747 5.7931 19.8807 5.7651C20.3007 5.7231 20.6997 5.7021 21.0777 5.7021C21.9877 5.7021 22.7997 5.8421 23.5137 6.1221C24.2277 6.3881 24.8297 6.7731 25.3197 7.2771C25.8097 7.7671 26.1807 8.3691 26.4327 9.0831C26.6987 9.7971 26.8317 10.5951 26.8317 11.4771Z" fill="#333333" fill-opacity="0.87"/>
<path d="M28.7116 11.5611C28.7116 10.5811 28.8586 9.7271 29.1526 8.9991C29.4606 8.2571 29.8596 7.6411 30.3496 7.1511C30.8396 6.6611 31.3996 6.2901 32.0296 6.0381C32.6736 5.7861 33.3316 5.6601 34.0036 5.6601C35.5716 5.6601 36.8106 6.1431 37.7206 7.1091C38.6306 8.0611 39.0856 9.4681 39.0856 11.3301C39.0856 11.5121 39.0786 11.7151 39.0646 11.9391C39.0506 12.1491 39.0366 12.3381 39.0226 12.5061H31.9246C31.9946 13.1501 32.2956 13.6611 32.8276 14.0391C33.3596 14.4171 34.0736 14.6061 34.9696 14.6061C35.5436 14.6061 36.1036 14.5571 36.6496 14.4591C37.2096 14.3471 37.6646 14.2141 38.0146 14.0601L38.4346 16.6011C38.2666 16.6851 38.0426 16.7691 37.7626 16.8531C37.4826 16.9371 37.1676 17.0071 36.8176 17.0631C36.4816 17.1331 36.1176 17.1891 35.7256 17.2311C35.3336 17.2731 34.9416 17.2941 34.5496 17.2941C33.5556 17.2941 32.6876 17.1471 31.9456 16.8531C31.2176 16.5591 30.6086 16.1601 30.1186 15.6561C29.6426 15.1381 29.2856 14.5291 29.0476 13.8291C28.8236 13.1291 28.7116 12.3731 28.7116 11.5611ZM36.0616 10.3641C36.0476 10.0981 35.9986 9.8391 35.9146 9.5871C35.8446 9.3351 35.7256 9.1111 35.5576 8.9151C35.4036 8.7191 35.2006 8.5581 34.9486 8.4321C34.7106 8.3061 34.4096 8.2431 34.0456 8.2431C33.6956 8.2431 33.3946 8.3061 33.1426 8.4321C32.8906 8.5441 32.6806 8.6981 32.5126 8.8941C32.3446 9.0901 32.2116 9.3211 32.1136 9.5871C32.0296 9.8391 31.9666 10.0981 31.9246 10.3641H36.0616Z" fill="#333333" fill-opacity="0.87"/>
<path d="M48.1572 8.7261C47.8772 8.6561 47.5482 8.5861 47.1702 8.5161C46.7922 8.4321 46.3862 8.3901 45.9522 8.3901C45.7562 8.3901 45.5182 8.4111 45.2382 8.4531C44.9722 8.4811 44.7692 8.5161 44.6292 8.5581V17.0001H41.5002V6.5421C42.0602 6.3461 42.7182 6.1641 43.4742 5.9961C44.2442 5.8141 45.0982 5.7231 46.0362 5.7231C46.2042 5.7231 46.4072 5.7371 46.6452 5.7651C46.8832 5.7791 47.1212 5.8071 47.3592 5.8491C47.5972 5.8771 47.8352 5.9191 48.0732 5.9751C48.3112 6.0171 48.5142 6.0731 48.6822 6.1431L48.1572 8.7261Z" fill="#333333" fill-opacity="0.87"/>
<path d="M50.2546 3.2031L53.3836 2.6991V5.9541H57.1426V8.5581H53.3836V12.4431C53.3836 13.1011 53.4956 13.6261 53.7196 14.0181C53.9576 14.4101 54.4266 14.6061 55.1266 14.6061C55.4626 14.6061 55.8056 14.5781 56.1556 14.5221C56.5196 14.4521 56.8486 14.3611 57.1426 14.2491L57.5836 16.6851C57.2056 16.8391 56.7856 16.9721 56.3236 17.0841C55.8616 17.1961 55.2946 17.2521 54.6226 17.2521C53.7686 17.2521 53.0616 17.1401 52.5016 16.9161C51.9416 16.6781 51.4936 16.3561 51.1576 15.9501C50.8216 15.5301 50.5836 15.0261 50.4436 14.4381C50.3176 13.8501 50.2546 13.1991 50.2546 12.4851V3.2031Z" fill="#333333" fill-opacity="0.87"/>
<path d="M69.1197 16.6221C68.5877 16.7761 67.9017 16.9161 67.0617 17.0421C66.2217 17.1821 65.3397 17.2521 64.4157 17.2521C63.4777 17.2521 62.6937 17.1261 62.0637 16.8741C61.4477 16.6221 60.9577 16.2721 60.5937 15.8241C60.2297 15.3621 59.9707 14.8161 59.8167 14.1861C59.6627 13.5561 59.5857 12.8631 59.5857 12.1071V5.9541H62.7147V11.7291C62.7147 12.7371 62.8477 13.4651 63.1137 13.9131C63.3797 14.3611 63.8767 14.5851 64.6047 14.5851C64.8287 14.5851 65.0667 14.5781 65.3187 14.5641C65.5707 14.5361 65.7947 14.5081 65.9907 14.4801V5.9541H69.1197V16.6221Z" fill="#333333" fill-opacity="0.87"/>
<path d="M78.1259 11.1411C78.1259 10.1331 77.9929 9.4191 77.7269 8.9991C77.4749 8.5791 77.0339 8.3691 76.4039 8.3691C76.2079 8.3691 76.0049 8.3831 75.7949 8.4111C75.5849 8.4251 75.3819 8.4461 75.1859 8.4741V17.0001H72.0569V6.3321C72.3229 6.2621 72.6309 6.1921 72.9809 6.1221C73.3449 6.0381 73.7229 5.9681 74.1149 5.9121C74.5209 5.8421 74.9339 5.7931 75.3539 5.7651C75.7739 5.7231 76.1869 5.7021 76.5929 5.7021C77.3909 5.7021 78.0349 5.8071 78.5249 6.0171C79.0289 6.2131 79.4419 6.4511 79.7639 6.7311C80.2119 6.4091 80.7229 6.1571 81.2969 5.9751C81.8849 5.7931 82.4239 5.7021 82.9139 5.7021C83.7959 5.7021 84.5169 5.8281 85.0769 6.0801C85.6509 6.3181 86.1059 6.6611 86.4419 7.1091C86.7779 7.5571 87.0089 8.0891 87.1349 8.7051C87.2609 9.3211 87.3239 10.0071 87.3239 10.7631V17.0001H84.1949V11.1411C84.1949 10.1331 84.0619 9.4191 83.7959 8.9991C83.5439 8.5791 83.1029 8.3691 82.4729 8.3691C82.3049 8.3691 82.0669 8.4111 81.7589 8.4951C81.4649 8.5791 81.2199 8.6841 81.0239 8.8101C81.1219 9.1321 81.1849 9.4751 81.2129 9.8391C81.2409 10.1891 81.2549 10.5671 81.2549 10.9731V17.0001H78.1259V11.1411Z" fill="#333333" fill-opacity="0.87"/>
<path d="M98.1712 9.7131C98.1712 10.4271 98.2552 11.0711 98.4232 11.6451C98.6052 12.2191 98.8572 12.7161 99.1792 13.1361C99.5152 13.5421 99.9212 13.8571 100.397 14.0811C100.873 14.3051 101.419 14.4171 102.035 14.4171C102.637 14.4171 103.176 14.3051 103.652 14.0811C104.142 13.8571 104.548 13.5421 104.87 13.1361C105.206 12.7161 105.458 12.2191 105.626 11.6451C105.808 11.0711 105.899 10.4271 105.899 9.7131C105.899 8.9991 105.808 8.3551 105.626 7.7811C105.458 7.1931 105.206 6.6961 104.87 6.2901C104.548 5.8701 104.142 5.5481 103.652 5.3241C103.176 5.1001 102.637 4.9881 102.035 4.9881C101.419 4.9881 100.873 5.1071 100.397 5.3451C99.9212 5.5691 99.5152 5.8911 99.1792 6.3111C98.8572 6.7171 98.6052 7.2141 98.4232 7.8021C98.2552 8.3761 98.1712 9.0131 98.1712 9.7131ZM109.28 9.7131C109.28 10.9591 109.091 12.0581 108.713 13.0101C108.349 13.9481 107.845 14.7391 107.201 15.3831C106.557 16.0131 105.787 16.4891 104.891 16.8111C104.009 17.1331 103.057 17.2941 102.035 17.2941C101.041 17.2941 100.103 17.1331 99.2212 16.8111C98.3392 16.4891 97.5692 16.0131 96.9112 15.3831C96.2532 14.7391 95.7352 13.9481 95.3572 13.0101C94.9792 12.0581 94.7902 10.9591 94.7902 9.7131C94.7902 8.4671 94.9862 7.3751 95.3782 6.4371C95.7702 5.4851 96.2952 4.6871 96.9532 4.0431C97.6252 3.3991 98.3952 2.9161 99.2632 2.5941C100.145 2.2721 101.069 2.1111 102.035 2.1111C103.029 2.1111 103.967 2.2721 104.849 2.5941C105.731 2.9161 106.501 3.3991 107.159 4.0431C107.817 4.6871 108.335 5.4851 108.713 6.4371C109.091 7.3751 109.28 8.4671 109.28 9.7131Z" fill="#333333" fill-opacity="0.87"/>
<path d="M111.801 6.3321C112.333 6.1781 113.019 6.0381 113.859 5.9121C114.699 5.7721 115.581 5.7021 116.505 5.7021C117.443 5.7021 118.22 5.8281 118.836 6.0801C119.466 6.3181 119.963 6.6611 120.327 7.1091C120.691 7.5571 120.95 8.0891 121.104 8.7051C121.258 9.3211 121.335 10.0071 121.335 10.7631V17.0001H118.206V11.1411C118.206 10.1331 118.073 9.4191 117.807 8.9991C117.541 8.5791 117.044 8.3691 116.316 8.3691C116.092 8.3691 115.854 8.3831 115.602 8.4111C115.35 8.4251 115.126 8.4461 114.93 8.4741V17.0001H111.801V6.3321Z" fill="#333333" fill-opacity="0.87"/>
<path d="M128.577 17.2101C127.667 17.1961 126.925 17.0981 126.351 16.9161C125.791 16.7341 125.343 16.4821 125.007 16.1601C124.685 15.8241 124.461 15.4251 124.335 14.9631C124.223 14.4871 124.167 13.9551 124.167 13.3671V1.2081L127.296 0.704102V12.7371C127.296 13.0171 127.317 13.2691 127.359 13.4931C127.401 13.7171 127.478 13.9061 127.59 14.0601C127.716 14.2141 127.891 14.3401 128.115 14.4381C128.339 14.5361 128.64 14.5991 129.018 14.6271L128.577 17.2101Z" fill="#333333" fill-opacity="0.87"/>
<path d="M133.941 17.0001H130.812V5.9541H133.941V17.0001ZM134.235 2.7621C134.235 3.3361 134.046 3.7911 133.668 4.1271C133.304 4.4491 132.87 4.6101 132.366 4.6101C131.862 4.6101 131.421 4.4491 131.043 4.1271C130.679 3.7911 130.497 3.3361 130.497 2.7621C130.497 2.1881 130.679 1.7401 131.043 1.4181C131.421 1.0821 131.862 0.914101 132.366 0.914101C132.87 0.914101 133.304 1.0821 133.668 1.4181C134.046 1.7401 134.235 2.1881 134.235 2.7621Z" fill="#333333" fill-opacity="0.87"/>
<path d="M136.882 6.3321C137.414 6.1781 138.1 6.0381 138.94 5.9121C139.78 5.7721 140.662 5.7021 141.586 5.7021C142.524 5.7021 143.301 5.8281 143.917 6.0801C144.547 6.3181 145.044 6.6611 145.408 7.1091C145.772 7.5571 146.031 8.0891 146.185 8.7051C146.339 9.3211 146.416 10.0071 146.416 10.7631V17.0001H143.287V11.1411C143.287 10.1331 143.154 9.4191 142.888 8.9991C142.622 8.5791 142.125 8.3691 141.397 8.3691C141.173 8.3691 140.935 8.3831 140.683 8.4111C140.431 8.4251 140.207 8.4461 140.011 8.4741V17.0001H136.882V6.3321Z" fill="#333333" fill-opacity="0.87"/>
<path d="M148.723 11.5611C148.723 10.5811 148.87 9.7271 149.164 8.9991C149.472 8.2571 149.871 7.6411 150.361 7.1511C150.851 6.6611 151.411 6.2901 152.041 6.0381C152.685 5.7861 153.343 5.6601 154.015 5.6601C155.583 5.6601 156.822 6.1431 157.732 7.1091C158.642 8.0611 159.097 9.4681 159.097 11.3301C159.097 11.5121 159.09 11.7151 159.076 11.9391C159.062 12.1491 159.048 12.3381 159.034 12.5061H151.936C152.006 13.1501 152.307 13.6611 152.839 14.0391C153.371 14.4171 154.085 14.6061 154.981 14.6061C155.555 14.6061 156.115 14.5571 156.661 14.4591C157.221 14.3471 157.676 14.2141 158.026 14.0601L158.446 16.6011C158.278 16.6851 158.054 16.7691 157.774 16.8531C157.494 16.9371 157.179 17.0071 156.829 17.0631C156.493 17.1331 156.129 17.1891 155.737 17.2311C155.345 17.2731 154.953 17.2941 154.561 17.2941C153.567 17.2941 152.699 17.1471 151.957 16.8531C151.229 16.5591 150.62 16.1601 150.13 15.6561C149.654 15.1381 149.297 14.5291 149.059 13.8291C148.835 13.1291 148.723 12.3731 148.723 11.5611ZM156.073 10.3641C156.059 10.0981 156.01 9.8391 155.926 9.5871C155.856 9.3351 155.737 9.1111 155.569 8.9151C155.415 8.7191 155.212 8.5581 154.96 8.4321C154.722 8.3061 154.421 8.2431 154.057 8.2431C153.707 8.2431 153.406 8.3061 153.154 8.4321C152.902 8.5441 152.692 8.6981 152.524 8.8941C152.356 9.0901 152.223 9.3211 152.125 9.5871C152.041 9.8391 151.978 10.0981 151.936 10.3641H156.073Z" fill="#333333" fill-opacity="0.87"/>
</svg>
