<svg width="91" height="19" viewBox="0 0 91 19" fill="none" xmlns="http://www.w3.org/2000/svg">
<path d="M3.7499 7.71309C3.7499 8.42709 3.8339 9.07108 4.0019 9.64508C4.1839 10.2191 4.4359 10.7161 4.7579 11.1361C5.0939 11.5421 5.4999 11.8571 5.9759 12.0811C6.4519 12.3051 6.9979 12.4171 7.6139 12.4171C8.2159 12.4171 8.7549 12.3051 9.2309 12.0811C9.7209 11.8571 10.1269 11.5421 10.4489 11.1361C10.7849 10.7161 11.0369 10.2191 11.2049 9.64508C11.3869 9.07108 11.4779 8.42709 11.4779 7.71309C11.4779 6.99908 11.3869 6.35508 11.2049 5.78109C11.0369 5.19308 10.7849 4.69608 10.4489 4.29008C10.1269 3.87008 9.7209 3.54808 9.2309 3.32408C8.7549 3.10008 8.2159 2.98808 7.6139 2.98808C6.9979 2.98808 6.4519 3.10708 5.9759 3.34509C5.4999 3.56908 5.0939 3.89108 4.7579 4.31108C4.4359 4.71708 4.1839 5.21408 4.0019 5.80208C3.8339 6.37608 3.7499 7.01309 3.7499 7.71309ZM14.8589 7.71309C14.8589 8.95908 14.6699 10.0581 14.2919 11.0101C13.9279 11.9481 13.4239 12.7391 12.7799 13.3831C12.1359 14.0131 11.3659 14.4891 10.4699 14.8111C9.5879 15.1331 8.6359 15.2941 7.6139 15.2941C6.6199 15.2941 5.6819 15.1331 4.7999 14.8111C3.9179 14.4891 3.1479 14.0131 2.4899 13.3831C1.8319 12.7391 1.3139 11.9481 0.935898 11.0101C0.557898 10.0581 0.368896 8.95908 0.368896 7.71309C0.368896 6.46709 0.564898 5.37508 0.956898 4.43708C1.3489 3.48508 1.8739 2.68708 2.5319 2.04308C3.2039 1.39908 3.9739 0.916084 4.8419 0.594084C5.7239 0.272084 6.6479 0.111084 7.6139 0.111084C8.6079 0.111084 9.5459 0.272084 10.4279 0.594084C11.3099 0.916084 12.0799 1.39908 12.7379 2.04308C13.3959 2.68708 13.9139 3.48508 14.2919 4.43708C14.6699 5.37508 14.8589 6.46709 14.8589 7.71309Z" fill="#333333" fill-opacity="0.87"/>
<path d="M24.4567 9.56108C24.4567 8.59508 24.2397 7.82508 23.8057 7.25108C23.3717 6.66308 22.7277 6.36908 21.8737 6.36908C21.5937 6.36908 21.3347 6.38309 21.0967 6.41109C20.8587 6.42508 20.6627 6.44608 20.5087 6.47408V12.1231C20.7047 12.2491 20.9567 12.3541 21.2647 12.4381C21.5867 12.5221 21.9087 12.5641 22.2307 12.5641C23.7147 12.5641 24.4567 11.5631 24.4567 9.56108ZM27.6487 9.47708C27.6487 10.3311 27.5437 11.1081 27.3337 11.8081C27.1237 12.5081 26.8157 13.1101 26.4097 13.6141C26.0037 14.1181 25.4997 14.5101 24.8977 14.7901C24.2957 15.0701 23.6027 15.2101 22.8187 15.2101C22.3847 15.2101 21.9787 15.1681 21.6007 15.0841C21.2227 15.0001 20.8587 14.8811 20.5087 14.7271V18.8851H17.3797V4.33208C17.6597 4.24808 17.9817 4.17108 18.3457 4.10108C18.7097 4.01708 19.0877 3.94708 19.4797 3.89108C19.8857 3.83508 20.2917 3.79308 20.6977 3.76508C21.1177 3.72308 21.5167 3.70208 21.8947 3.70208C22.8047 3.70208 23.6167 3.84208 24.3307 4.12208C25.0447 4.38808 25.6467 4.77308 26.1367 5.27708C26.6267 5.76708 26.9977 6.36908 27.2497 7.08309C27.5157 7.79709 27.6487 8.59508 27.6487 9.47708Z" fill="#333333" fill-opacity="0.87"/>
<path d="M29.5285 9.56108C29.5285 8.58108 29.6755 7.72708 29.9695 6.99908C30.2775 6.25708 30.6765 5.64108 31.1665 5.15108C31.6565 4.66108 32.2165 4.29009 32.8465 4.03808C33.4905 3.78608 34.1485 3.66008 34.8205 3.66008C36.3885 3.66008 37.6275 4.14308 38.5375 5.10908C39.4475 6.06108 39.9025 7.46808 39.9025 9.33008C39.9025 9.51208 39.8955 9.71509 39.8815 9.93909C39.8675 10.1491 39.8535 10.3381 39.8395 10.5061H32.7415C32.8115 11.1501 33.1125 11.6611 33.6445 12.0391C34.1765 12.4171 34.8905 12.6061 35.7865 12.6061C36.3605 12.6061 36.9205 12.5571 37.4665 12.4591C38.0265 12.3471 38.4815 12.2141 38.8315 12.0601L39.2515 14.6011C39.0835 14.6851 38.8595 14.7691 38.5795 14.8531C38.2995 14.9371 37.9845 15.0071 37.6345 15.0631C37.2985 15.1331 36.9345 15.1891 36.5425 15.2311C36.1505 15.2731 35.7585 15.2941 35.3665 15.2941C34.3725 15.2941 33.5045 15.1471 32.7625 14.8531C32.0345 14.5591 31.4255 14.1601 30.9355 13.6561C30.4595 13.1381 30.1025 12.5291 29.8645 11.8291C29.6405 11.1291 29.5285 10.3731 29.5285 9.56108ZM36.8785 8.36408C36.8645 8.09808 36.8155 7.83908 36.7315 7.58708C36.6615 7.33508 36.5425 7.11108 36.3745 6.91508C36.2205 6.71908 36.0175 6.55808 35.7655 6.43208C35.5275 6.30608 35.2265 6.24308 34.8625 6.24308C34.5125 6.24308 34.2115 6.30608 33.9595 6.43208C33.7075 6.54408 33.4975 6.69808 33.3295 6.89408C33.1615 7.09008 33.0285 7.32108 32.9305 7.58708C32.8465 7.83908 32.7835 8.09808 32.7415 8.36408H36.8785Z" fill="#333333" fill-opacity="0.87"/>
<path d="M42.3172 4.33208C42.8492 4.17808 43.5352 4.03808 44.3752 3.91208C45.2152 3.77208 46.0972 3.70208 47.0212 3.70208C47.9592 3.70208 48.7362 3.82808 49.3522 4.08008C49.9822 4.31808 50.4792 4.66108 50.8432 5.10908C51.2072 5.55708 51.4662 6.08908 51.6202 6.70508C51.7742 7.32108 51.8512 8.00708 51.8512 8.76308V15.0001H48.7222V9.14108C48.7222 8.13308 48.5892 7.41908 48.3232 6.99908C48.0572 6.57908 47.5602 6.36908 46.8322 6.36908C46.6082 6.36908 46.3702 6.38309 46.1182 6.41109C45.8662 6.42508 45.6422 6.44608 45.4462 6.47408V15.0001H42.3172V4.33208Z" fill="#333333" fill-opacity="0.87"/>
<path d="M64.6584 15.0001C63.7204 13.3341 62.7054 11.6891 61.6134 10.0651C60.5214 8.44108 59.3594 6.90808 58.1274 5.46608V15.0001H54.8934V0.447084H57.5604C58.0224 0.909084 58.5334 1.47608 59.0934 2.14808C59.6534 2.82008 60.2204 3.54108 60.7944 4.31108C61.3824 5.06708 61.9634 5.85808 62.5374 6.68408C63.1114 7.49608 63.6504 8.28008 64.1544 9.03609V0.447084H67.4094V15.0001H64.6584Z" fill="#333333" fill-opacity="0.87"/>
<path d="M70.0315 9.56108C70.0315 8.58108 70.1785 7.72708 70.4725 6.99908C70.7805 6.25708 71.1795 5.64108 71.6695 5.15108C72.1595 4.66108 72.7195 4.29009 73.3495 4.03808C73.9935 3.78608 74.6515 3.66008 75.3235 3.66008C76.8915 3.66008 78.1305 4.14308 79.0405 5.10908C79.9505 6.06108 80.4055 7.46808 80.4055 9.33008C80.4055 9.51208 80.3985 9.71509 80.3845 9.93909C80.3705 10.1491 80.3565 10.3381 80.3425 10.5061H73.2445C73.3145 11.1501 73.6155 11.6611 74.1475 12.0391C74.6795 12.4171 75.3935 12.6061 76.2895 12.6061C76.8635 12.6061 77.4235 12.5571 77.9695 12.4591C78.5295 12.3471 78.9845 12.2141 79.3345 12.0601L79.7545 14.6011C79.5865 14.6851 79.3625 14.7691 79.0825 14.8531C78.8025 14.9371 78.4875 15.0071 78.1375 15.0631C77.8015 15.1331 77.4375 15.1891 77.0455 15.2311C76.6535 15.2731 76.2615 15.2941 75.8695 15.2941C74.8755 15.2941 74.0075 15.1471 73.2655 14.8531C72.5375 14.5591 71.9285 14.1601 71.4385 13.6561C70.9625 13.1381 70.6055 12.5291 70.3675 11.8291C70.1435 11.1291 70.0315 10.3731 70.0315 9.56108ZM77.3815 8.36408C77.3675 8.09808 77.3185 7.83908 77.2345 7.58708C77.1645 7.33508 77.0455 7.11108 76.8775 6.91508C76.7235 6.71908 76.5205 6.55808 76.2685 6.43208C76.0305 6.30608 75.7295 6.24308 75.3655 6.24308C75.0155 6.24308 74.7145 6.30608 74.4625 6.43208C74.2105 6.54408 74.0005 6.69808 73.8325 6.89408C73.6645 7.09008 73.5315 7.32108 73.4335 7.58708C73.3495 7.83908 73.2865 8.09808 73.2445 8.36408H77.3815Z" fill="#333333" fill-opacity="0.87"/>
<path d="M82.7151 1.20308L85.8441 0.699084V3.95408H89.6031V6.55808H85.8441V10.4431C85.8441 11.1011 85.9561 11.6261 86.1801 12.0181C86.4181 12.4101 86.8871 12.6061 87.5871 12.6061C87.9231 12.6061 88.2661 12.5781 88.6161 12.5221C88.9801 12.4521 89.3091 12.3611 89.6031 12.2491L90.0441 14.6851C89.6661 14.8391 89.2461 14.9721 88.7841 15.0841C88.3221 15.1961 87.7551 15.2521 87.0831 15.2521C86.2291 15.2521 85.5221 15.1401 84.9621 14.9161C84.4021 14.6781 83.9541 14.3561 83.6181 13.9501C83.2821 13.5301 83.0441 13.0261 82.9041 12.4381C82.7781 11.8501 82.7151 11.1991 82.7151 10.4851V1.20308Z" fill="#333333" fill-opacity="0.87"/>
</svg>
