<svg width="45" height="49" viewBox="0 0 45 49" fill="none" xmlns="http://www.w3.org/2000/svg">
<path d="M32.7803 24.1847C26.1543 24.1847 20.7803 29.5774 20.7803 36.2265C20.7803 42.8756 26.1543 48.2683 32.7803 48.2683C39.4063 48.2683 44.7803 42.8756 44.7803 36.2265C44.7803 29.5774 39.4063 24.1847 32.7803 24.1847ZM33.7803 41.1918V42.2474H32.7803V41.2459C31.7443 41.2279 30.6743 40.981 29.7803 40.5174L30.2363 38.8677C31.1923 39.241 32.4643 39.6364 33.4603 39.4096C34.6083 39.1487 34.8443 37.9625 33.5743 37.3926C32.6443 36.957 29.7963 36.5858 29.7963 34.1373C29.7963 32.7705 30.8363 31.5443 32.7803 31.2773V30.2056H33.7803V31.2272C34.5043 31.2472 35.3163 31.3737 36.2223 31.6486L35.8603 33.3024C35.0923 33.0314 34.2443 32.7866 33.4163 32.8367C31.9283 32.923 31.7963 34.2175 32.8363 34.7594C34.5483 35.5662 36.7803 36.1643 36.7803 38.3178C36.7823 40.0398 35.4363 40.9569 33.7803 41.1918ZM37.0283 20.7628C39.2923 20.3153 41.3523 19.5065 42.7803 18.3605V19.669C42.7803 20.6705 42.0083 21.5857 40.7663 22.3343C39.6043 21.6579 38.3503 21.1301 37.0283 20.7628ZM32.7803 9.13243C38.1263 9.13243 42.7803 7.11142 42.7803 4.61675C42.7803 2.12209 38.1263 0.101074 32.7803 0.101074C27.4363 0.101074 22.7803 2.12209 22.7803 4.61675C22.7803 7.11142 27.4363 9.13243 32.7803 9.13243ZM10.7803 31.2091C13.6703 31.2091 16.3303 30.605 18.1903 29.6677C18.8123 28.2829 19.6183 27.0005 20.5863 25.8565C19.6843 23.7632 15.5083 22.1777 10.7803 22.1777C5.43627 22.1777 0.780273 24.1987 0.780273 26.6934C0.780273 29.1881 5.43627 31.2091 10.7803 31.2091ZM18.9723 44.2985C17.1343 45.4826 14.0923 46.2614 10.7803 46.2614C5.43627 46.2614 0.780273 44.2403 0.780273 41.7457V40.4371C3.07227 42.2795 6.99827 43.2509 10.7803 43.2509C13.2523 43.2509 15.7783 42.8274 17.8783 42.0246C18.1843 42.8154 18.5503 43.576 18.9723 44.2985ZM0.780273 36.7283V35.4217C3.07227 37.2621 6.99827 38.2335 10.7803 38.2335C12.8583 38.2335 14.9683 37.9304 16.8363 37.3604C16.9023 38.3017 17.0503 39.2189 17.2723 40.11C15.4963 40.8064 13.2243 41.2439 10.7803 41.2439C5.43627 41.2439 0.780273 39.2229 0.780273 36.7283ZM0.780273 31.7108V30.4023C3.07227 32.2447 6.99827 33.2161 10.7803 33.2161C13.0343 33.2161 15.3303 32.8628 17.3123 32.1945C17.0563 33.1839 16.8923 34.2055 16.8303 35.2571C15.1223 35.8552 13.0243 36.2265 10.7803 36.2265C5.43627 36.2265 0.780273 34.2055 0.780273 31.7108ZM22.7803 9.63418V8.32563C25.0723 10.168 28.9983 11.1394 32.7803 11.1394C36.5643 11.1394 40.4883 10.168 42.7803 8.32563V9.63418C42.7803 12.1288 38.1263 14.1499 32.7803 14.1499C27.4363 14.1499 22.7803 12.1288 22.7803 9.63418ZM22.7803 19.669V18.3605C24.2063 19.5065 26.2683 20.3153 28.5323 20.7628C27.2103 21.1301 25.9583 21.6579 24.7963 22.3343C23.5523 21.5857 22.7803 20.6705 22.7803 19.669ZM22.7803 14.6516V13.3451C25.0723 15.1855 28.9983 16.1568 32.7803 16.1568C36.5643 16.1568 40.4883 15.1855 42.7803 13.3451V14.6516C42.7803 17.1463 38.1263 19.1673 32.7803 19.1673C27.4363 19.1673 22.7803 17.1463 22.7803 14.6516Z" fill="#11355F"/>
<path d="M20.7803 36.2265C20.7803 29.5774 26.1543 24.1847 32.7803 24.1847C39.4063 24.1847 44.7803 29.5774 44.7803 36.2265C44.7803 42.8756 39.4063 48.2683 32.7803 48.2683C26.1543 48.2683 20.7803 42.8756 20.7803 36.2265Z" fill="#2D8DFC"/>
<path d="M33.7803 42.2474V41.1917C35.4363 40.9569 36.7823 40.0397 36.7803 38.3177C36.7803 36.1643 34.5483 35.5662 32.8363 34.7594C31.7963 34.2175 31.9283 32.923 33.4163 32.8367C34.2443 32.7865 35.0923 33.0314 35.8603 33.3023L36.2223 31.6486C35.3163 31.3736 34.5043 31.2472 33.7803 31.2271V30.2056H32.7803V31.2773C30.8363 31.5442 29.7963 32.7705 29.7963 34.1372C29.7963 36.5857 32.6443 36.957 33.5743 37.3925C34.8443 37.9625 34.6083 39.1486 33.4603 39.4095C32.4643 39.6363 31.1923 39.2409 30.2363 38.8676L29.7803 40.5174C30.6743 40.981 31.7443 41.2278 32.7803 41.2459V42.2474H33.7803Z" fill="white"/>
</svg>
