<svg width="32" height="32" viewBox="0 0 32 32" fill="none" xmlns="http://www.w3.org/2000/svg">
<circle cx="16" cy="16" r="16" fill="white"/>
<path fill-rule="evenodd" clip-rule="evenodd" d="M10.8483 9.5C9.85059 9.5 9.19788 10.1549 9.19788 11.0153C9.19788 11.8575 9.83167 12.5313 10.81 12.5313H10.8289C11.8462 12.5313 12.4787 11.8575 12.4787 11.0153C12.4593 10.1549 11.8462 9.5 10.8483 9.5ZM22.8021 17.4697V22.5H19.8856V17.8068C19.8856 16.6284 19.4645 15.8236 18.4086 15.8236C17.6027 15.8236 17.124 16.3654 16.9126 16.89C16.8358 17.0775 16.816 17.3378 16.816 17.6008V22.4998H13.8994C13.8994 22.4998 13.9385 14.551 13.8994 13.7282H16.8163V14.9712C16.8135 14.9758 16.8102 14.9803 16.807 14.9848L16.807 14.9848C16.8033 14.9899 16.7997 14.995 16.7969 14.9999H16.8163V14.9712C17.2038 14.3748 17.8951 13.5222 19.4448 13.5222C21.3635 13.5222 22.8021 14.7759 22.8021 17.4697ZM12.2868 22.5H9.37122V13.7282H12.2868V22.5Z" fill="#2D8DFC"/>
</svg>
