<svg width="32" height="32" viewBox="0 0 32 32" fill="none" xmlns="http://www.w3.org/2000/svg">
<circle cx="16" cy="16" r="16" fill="white"/>
<path fill-rule="evenodd" clip-rule="evenodd" d="M22.1826 10.9272L22.1454 10.9024C21.3765 10.1707 20.4711 9.8234 19.4293 9.873L19.3921 9.79859L19.4169 9.78619C20.3595 9.57535 20.9176 9.3521 21.0912 9.10406C21.1408 8.90562 21.0788 8.794 20.868 8.76919C20.3967 8.8312 19.9502 8.93042 19.5657 9.09165C20.0618 8.76919 20.2479 8.54595 20.1363 8.43433C19.6526 8.44673 19.1193 8.69478 18.5735 9.19087C18.772 8.84361 18.8588 8.64517 18.8092 8.62036C18.5363 8.794 18.3131 8.99243 18.1147 9.20328C17.693 9.67457 17.3581 10.1087 17.0977 10.5055L17.0853 10.5303C16.4279 11.6093 15.9566 12.6884 15.6838 13.7922L15.5846 13.879L15.5598 13.8914C15.1629 13.3953 14.6792 12.9736 14.1087 12.6387C13.439 12.1923 12.6452 11.783 11.7274 11.3737C10.7352 10.8528 9.71823 10.4311 8.70124 10.0962C8.68883 11.2497 9.25934 12.155 10.3632 12.8248V12.8372C9.97868 12.8372 9.59421 12.8992 9.22214 13.0108C9.29655 14.0774 10.0531 14.8092 11.4794 15.206L11.467 15.2308C10.9089 15.1936 10.45 15.3921 10.0903 15.8014C10.5616 16.7191 11.3926 17.1532 12.5956 17.1284C12.3599 17.2524 12.1739 17.3765 12.0499 17.5253C11.8266 17.7609 11.7522 18.0338 11.8266 18.3438C12.0871 18.8151 12.546 19.026 13.2281 18.9888L13.2653 19.0384L13.2529 19.0632C12.0747 20.2786 10.6484 20.8243 8.98649 20.7127L8.96169 20.7251C7.94469 20.7127 6.85328 20.229 5.67505 19.2616C6.85328 20.9608 8.42838 22.1886 10.3756 22.9699C12.5956 23.7017 14.828 23.7637 17.0481 23.1312H17.0853C19.2433 22.5111 21.0664 21.2212 22.5795 19.2864C23.2741 18.2818 23.7081 17.3144 23.8818 16.3843C25.0104 16.4215 25.8165 16.099 26.325 15.4045L26.3126 15.3797C25.9282 15.5161 25.1964 15.4789 24.1174 15.2556V15.1316C25.3081 14.9952 26.015 14.6107 26.2382 13.9782C25.4073 14.3007 24.5887 14.3131 23.7826 14.003C23.6337 12.8868 23.1004 11.8574 22.1826 10.9272" fill="#2D8DFC"/>
</svg>
