<svg width="32" height="32" viewBox="0 0 32 32" fill="none" xmlns="http://www.w3.org/2000/svg">
<circle cx="16" cy="16" r="16" fill="white"/>
<path d="M18.9568 13.6441C17.3432 13.7284 15.9401 14.2176 14.8009 15.3226C13.65 16.4391 13.1246 17.8073 13.2682 19.5033C12.6376 19.4252 12.0631 19.3392 11.4854 19.2906C11.2859 19.2738 11.0491 19.2976 10.8801 19.393C10.3191 19.7095 9.7813 20.0669 9.14389 20.4654C9.26086 19.9364 9.33656 19.4731 9.47057 19.0276C9.56915 18.7001 9.52348 18.5179 9.22182 18.3046C7.28484 16.937 6.46839 14.8904 7.0794 12.7834C7.6447 10.8342 9.03296 9.65205 10.9193 9.03581C13.494 8.19483 16.3874 9.05268 17.953 11.0968C18.5184 11.8352 18.8652 12.6639 18.9568 13.6441ZM11.5306 12.9876C11.5454 12.6022 11.2115 12.255 10.8149 12.2434C10.4088 12.2314 10.0747 12.5418 10.0629 12.942C10.0509 13.3475 10.3611 13.6725 10.7701 13.6829C11.1757 13.6932 11.5156 13.3825 11.5306 12.9876ZM15.4051 12.2431C15.007 12.2505 14.6706 12.5895 14.6777 12.9764C14.685 13.3775 15.015 13.6912 15.4243 13.6863C15.8348 13.6814 16.1461 13.3643 16.1422 12.9548C16.1388 12.5528 15.8102 12.2357 15.4051 12.2431Z" fill="#2D8DFC"/>
<path d="M22.5819 23.7035C22.071 23.476 21.6023 23.1347 21.1033 23.0826C20.6062 23.0307 20.0837 23.3174 19.5636 23.3706C17.9795 23.5327 16.5603 23.0912 15.3901 22.009C13.1645 19.9505 13.4825 16.7941 16.0575 15.1072C18.346 13.6079 21.7022 14.1077 23.3157 16.188C24.7237 18.0033 24.5582 20.413 22.8393 21.938C22.3419 22.3794 22.1629 22.7426 22.482 23.3244C22.541 23.4318 22.5477 23.5679 22.5819 23.7035ZM16.7659 18.0725C17.0912 18.0728 17.359 17.8182 17.3713 17.497C17.3843 17.1568 17.1108 16.8716 16.7702 16.8701C16.433 16.8686 16.1505 17.1579 16.1622 17.493C16.1733 17.8131 16.443 18.0721 16.7659 18.0725ZM20.5152 16.8715C20.1996 16.8693 19.9314 17.1276 19.9185 17.4465C19.9049 17.7875 20.1699 18.0676 20.5074 18.0684C20.8338 18.0695 21.0917 17.8226 21.1035 17.4978C21.1162 17.1561 20.851 16.8738 20.5152 16.8715Z" fill="#2D8DFC"/>
</svg>
